<svg width="1742" height="1716" viewBox="0 0 3484 3432" fill="none" xmlns="http://www.w3.org/2000/svg">
    <path d="M25.1067 1716L47.4138 1710.02L31.0839 1693.69L25.1067 1716ZM739.692 998.586L36.4204 1701.86L39.2488 1704.69L742.521 1001.41L739.692 998.586Z" fill="black" />
    <path d="M36.3356 1692.59C34.9429 1693.98 33.3894 1694.87 31.6752 1695.26C29.9677 1695.64 28.2233 1695.53 26.4422 1694.93C24.6677 1694.32 22.9837 1693.22 21.39 1691.62C19.7829 1690.02 18.6714 1688.32 18.0553 1686.54C17.446 1684.75 17.3322 1683 17.7138 1681.3C18.1022 1679.58 18.9928 1678.03 20.3856 1676.64C21.7784 1675.24 23.3285 1674.36 25.036 1673.97C26.7502 1673.59 28.4979 1673.7 30.279 1674.32C32.0669 1674.93 33.7643 1676.03 35.3714 1677.64C36.9651 1679.23 38.0632 1680.92 38.6659 1682.7C39.2752 1684.48 39.3857 1686.22 38.9973 1687.94C38.6157 1689.64 37.7284 1691.19 36.3356 1692.59ZM34.2063 1690.46C35.2643 1689.4 35.8636 1688.26 36.0042 1687.03C36.1448 1685.81 35.9372 1684.59 35.3815 1683.38C34.8257 1682.16 34.0322 1681.04 33.001 1680.01C31.9698 1678.98 30.8449 1678.18 29.6262 1677.62C28.4075 1677.06 27.1821 1676.84 25.95 1676.98C24.7179 1677.11 23.5729 1677.71 22.5149 1678.77C21.4569 1679.82 20.861 1680.97 20.7271 1682.2C20.5931 1683.43 20.8074 1684.66 21.3699 1685.88C21.9324 1687.1 22.7292 1688.22 23.7604 1689.25C24.7916 1690.28 25.9132 1691.08 27.1252 1691.63C28.3372 1692.19 29.5559 1692.4 30.7812 1692.25C32.0066 1692.11 33.1483 1691.52 34.2063 1690.46ZM53.2123 1675.71C51.7659 1677.16 50.179 1678.06 48.4514 1678.42C46.7238 1678.78 44.9795 1678.65 43.2184 1678.01C41.4573 1677.37 39.8067 1676.29 38.2666 1674.75C36.6997 1673.18 35.6049 1671.51 34.9822 1669.73C34.3595 1667.95 34.2289 1666.19 34.5905 1664.48C34.9521 1662.75 35.8293 1661.19 37.222 1659.8C38.3068 1658.72 39.4853 1657.94 40.7576 1657.47C42.0298 1657 43.3054 1656.85 44.5844 1657.02C45.8633 1657.19 47.0519 1657.68 48.1501 1658.51L45.7796 1660.88C44.8958 1660.36 43.8713 1660.14 42.7061 1660.22C41.541 1660.29 40.4362 1660.84 39.3916 1661.89C38.4675 1662.81 37.8983 1663.86 37.6841 1665.04C37.4698 1666.21 37.6037 1667.42 38.0858 1668.68C38.568 1669.92 39.3916 1671.13 40.5567 1672.29C41.7486 1673.49 42.974 1674.34 44.2328 1674.85C45.4984 1675.35 46.7204 1675.5 47.899 1675.3C49.0842 1675.09 50.1455 1674.52 51.0829 1673.58C51.699 1672.96 52.151 1672.3 52.4389 1671.58C52.7268 1670.87 52.844 1670.13 52.7904 1669.38C52.7369 1668.63 52.5025 1667.9 52.0874 1667.19L54.4578 1664.82C55.2345 1665.87 55.7233 1667.02 55.9242 1668.28C56.1251 1669.52 56.0079 1670.79 55.5727 1672.08C55.1374 1673.36 54.3506 1674.57 53.2123 1675.71ZM54.6285 1653.96L59.0479 1649.54C60.8559 1647.74 62.6973 1646.81 64.5722 1646.77C66.4471 1646.73 68.0876 1647.42 69.4938 1648.82C70.4179 1649.75 71.044 1650.8 71.3721 1651.99C71.6935 1653.16 71.6634 1654.39 71.2817 1655.67C70.8933 1656.94 70.0965 1658.18 68.8912 1659.39L62.4228 1665.86L46.995 1650.43L49.3654 1648.06L62.5835 1661.28L66.6815 1657.18C67.6189 1656.24 68.1412 1655.22 68.2484 1654.12C68.3555 1653.03 68.0207 1652.09 67.2439 1651.31C66.427 1650.5 65.4594 1650.13 64.3412 1650.22C63.2229 1650.3 62.1951 1650.82 61.2576 1651.75L56.8382 1656.17L54.6285 1653.96ZM93.3511 1646.5C92.9494 1646.9 92.5577 1647.23 92.176 1647.47C91.801 1647.73 91.5231 1647.88 91.3423 1647.95L89.8558 1645.25C90.579 1644.82 91.1414 1644.37 91.5432 1643.89C91.945 1643.41 92.1392 1642.82 92.1258 1642.12C92.1258 1641.42 91.878 1640.54 91.3825 1639.47L90.6191 1637.82L69.4059 1628.02L71.9772 1625.45L88.53 1633.48L88.6907 1633.32L80.6554 1616.77L83.2267 1614.2L94.3556 1638.42C94.8578 1639.51 95.1524 1640.54 95.2394 1641.5C95.3332 1642.46 95.2194 1643.36 94.8979 1644.19C94.5832 1645.01 94.0676 1645.78 93.3511 1646.5Z" fill="black" />
    <path d="M731.455 90.0682C731.455 92.0379 730.986 93.7661 730.048 95.2528C729.111 96.7301 727.799 97.8854 726.114 98.7187C724.428 99.5426 722.458 99.9545 720.205 99.9545C717.932 99.9545 715.948 99.5426 714.253 98.7187C712.558 97.8854 711.241 96.7301 710.304 95.2528C709.366 93.7661 708.898 92.0379 708.898 90.0682C708.898 88.0985 709.366 86.375 710.304 84.8977C711.241 83.411 712.558 82.2557 714.253 81.4318C715.948 80.5985 717.932 80.1818 720.205 80.1818C722.458 80.1818 724.428 80.5985 726.114 81.4318C727.799 82.2557 729.111 83.411 730.048 84.8977C730.986 86.375 731.455 88.0985 731.455 90.0682ZM728.443 90.0682C728.443 88.572 728.06 87.3409 727.293 86.375C726.526 85.4091 725.517 84.6941 724.267 84.2301C723.017 83.7661 721.663 83.5341 720.205 83.5341C718.746 83.5341 717.387 83.7661 716.128 84.2301C714.868 84.6941 713.85 85.4091 713.074 86.375C712.297 87.3409 711.909 88.572 711.909 90.0682C711.909 91.5644 712.297 92.7955 713.074 93.7614C713.85 94.7273 714.868 95.4422 716.128 95.9062C717.387 96.3703 718.746 96.6023 720.205 96.6023C721.663 96.6023 723.017 96.3703 724.267 95.9062C725.517 95.4422 726.526 94.7273 727.293 93.7614C728.06 92.7955 728.443 91.5644 728.443 90.0682ZM731.455 66.201C731.455 68.2464 730.972 70.0078 730.006 71.4851C729.04 72.9624 727.709 74.0987 726.014 74.8942C724.319 75.6896 722.383 76.0874 720.205 76.0874C717.989 76.0874 716.033 75.6802 714.338 74.8658C712.634 74.0419 711.303 72.8961 710.347 71.4283C709.381 69.951 708.898 68.2275 708.898 66.2578C708.898 64.7237 709.182 63.3411 709.75 62.1101C710.318 60.879 711.114 59.8705 712.136 59.0845C713.159 58.2985 714.352 57.8108 715.716 57.6214L715.716 60.9737C714.722 61.2294 713.841 61.7976 713.074 62.6783C712.297 63.5495 711.909 64.7237 711.909 66.201C711.909 67.5078 712.25 68.6536 712.932 69.6385C713.604 70.6139 714.556 71.3762 715.787 71.9254C717.009 72.4652 718.443 72.7351 720.091 72.7351C721.777 72.7351 723.244 72.4699 724.494 71.9396C725.744 71.3999 726.715 70.6423 727.406 69.6669C728.098 68.6821 728.443 67.5268 728.443 66.201C728.443 65.3298 728.292 64.5391 727.989 63.8288C727.686 63.1186 727.25 62.5173 726.682 62.0249C726.114 61.5324 725.432 61.1821 724.636 60.9737L724.636 57.6214C725.924 57.8108 727.084 58.2796 728.116 59.0277C729.139 59.7663 729.954 60.7464 730.56 61.968C731.156 63.1802 731.455 64.5911 731.455 66.201ZM717.08 49.8232L717.08 43.5732C717.08 41.0163 717.728 39.0608 719.026 37.7067C720.323 36.3525 721.966 35.6754 723.955 35.6754C725.261 35.6754 726.45 35.9785 727.52 36.5845C728.58 37.1906 729.428 38.0807 730.062 39.255C730.687 40.4292 731 41.8686 731 43.5732L731 52.7209L709.182 52.7209L709.182 49.3686L727.875 49.3686L727.875 43.5732C727.875 42.2474 727.525 41.1584 726.824 40.3061C726.123 39.4538 725.223 39.0277 724.125 39.0277C722.97 39.0277 722.027 39.4538 721.298 40.3061C720.569 41.1584 720.205 42.2474 720.205 43.5732L720.205 49.8232L717.08 49.8232ZM731 19.9474L728.443 19.9474L712.534 7.56108L712.307 7.56108L712.307 19.5497L709.182 19.5497L709.182 3.2429L711.852 3.2429L727.648 15.2884L727.875 15.2884L727.875 2.84517L731 2.84517L731 19.9474Z" fill="black" />
    <path d="M741 1.1921e-06L729.453 20H752.547L741 1.1921e-06ZM743 1000L743 18H739L739 1000H743Z" fill="black" />
    <path d="M1651.93 991.455C1649.96 991.455 1648.23 990.986 1646.75 990.048C1645.27 989.111 1644.11 987.799 1643.28 986.114C1642.46 984.428 1642.05 982.458 1642.05 980.205C1642.05 977.932 1642.46 975.948 1643.28 974.253C1644.11 972.558 1645.27 971.241 1646.75 970.304C1648.23 969.366 1649.96 968.898 1651.93 968.898C1653.9 968.898 1655.63 969.366 1657.1 970.304C1658.59 971.241 1659.74 972.558 1660.57 974.253C1661.4 975.948 1661.82 977.932 1661.82 980.205C1661.82 982.458 1661.4 984.428 1660.57 986.114C1659.74 987.799 1658.59 989.111 1657.1 990.048C1655.63 990.986 1653.9 991.455 1651.93 991.455ZM1651.93 988.443C1653.43 988.443 1654.66 988.06 1655.62 987.293C1656.59 986.526 1657.31 985.517 1657.77 984.267C1658.23 983.017 1658.47 981.663 1658.47 980.205C1658.47 978.746 1658.23 977.387 1657.77 976.128C1657.31 974.868 1656.59 973.85 1655.62 973.074C1654.66 972.297 1653.43 971.909 1651.93 971.909C1650.44 971.909 1649.2 972.297 1648.24 973.074C1647.27 973.85 1646.56 974.868 1646.09 976.128C1645.63 977.387 1645.4 978.746 1645.4 980.205C1645.4 981.663 1645.63 983.017 1646.09 984.267C1646.56 985.517 1647.27 986.526 1648.24 987.293C1649.2 988.06 1650.44 988.443 1651.93 988.443ZM1675.8 991.455C1673.75 991.455 1671.99 990.972 1670.51 990.006C1669.04 989.04 1667.9 987.709 1667.11 986.014C1666.31 984.319 1665.91 982.383 1665.91 980.205C1665.91 977.989 1666.32 976.033 1667.13 974.338C1667.96 972.634 1669.1 971.303 1670.57 970.347C1672.05 969.381 1673.77 968.898 1675.74 968.898C1677.28 968.898 1678.66 969.182 1679.89 969.75C1681.12 970.318 1682.13 971.114 1682.92 972.136C1683.7 973.159 1684.19 974.352 1684.38 975.716H1681.03C1680.77 974.722 1680.2 973.841 1679.32 973.074C1678.45 972.297 1677.28 971.909 1675.8 971.909C1674.49 971.909 1673.35 972.25 1672.36 972.932C1671.39 973.604 1670.62 974.556 1670.07 975.787C1669.53 977.009 1669.26 978.443 1669.26 980.091C1669.26 981.777 1669.53 983.244 1670.06 984.494C1670.6 985.744 1671.36 986.715 1672.33 987.406C1673.32 988.098 1674.47 988.443 1675.8 988.443C1676.67 988.443 1677.46 988.292 1678.17 987.989C1678.88 987.686 1679.48 987.25 1679.98 986.682C1680.47 986.114 1680.82 985.432 1681.03 984.636H1684.38C1684.19 985.924 1683.72 987.084 1682.97 988.116C1682.23 989.139 1681.25 989.954 1680.03 990.56C1678.82 991.156 1677.41 991.455 1675.8 991.455ZM1692.18 977.08H1698.43C1700.98 977.08 1702.94 977.728 1704.29 979.026C1705.65 980.323 1706.32 981.966 1706.32 983.955C1706.32 985.261 1706.02 986.45 1705.42 987.52C1704.81 988.58 1703.92 989.428 1702.75 990.062C1701.57 990.688 1700.13 991 1698.43 991H1689.28V969.182H1692.63V987.875H1698.43C1699.75 987.875 1700.84 987.525 1701.69 986.824C1702.55 986.123 1702.97 985.223 1702.97 984.125C1702.97 982.97 1702.55 982.027 1701.69 981.298C1700.84 980.569 1699.75 980.205 1698.43 980.205H1692.18V977.08ZM1725.18 969.182L1730.4 978.102L1735.63 969.182H1739.5L1732.45 980.091L1739.5 991H1735.63L1730.4 982.534L1725.18 991H1721.31L1728.25 980.091L1721.31 969.182H1725.18Z" fill="black" />
    <path d="M1741 1000L1721 988.453V1011.55L1741 1000ZM741 1002H1723V998H741V1002Z" fill="black" />
</svg>
