<svg version="1.1" xmlns="http://www.w3.org/2000/svg" xmlns:xlink="http://www.w3.org/1999/xlink" x="0px" y="0px" xml:space="preserve">
    <g>
        <g transform="translate(0.000000,512.000000) scale(0.100000,-0.100000)">
            <path d="
            M1292.5,3827.5
            L100,2637v-3661.6v-3661.6l47.9-45.9l45.9-47.9h3661.6H7517l1190.5,1192.5L9900-2397v3661.6v3661.6l-47.9,45.9l-45.9,47.9H6144.6H2483L1292.5,3827.5z M8359.2,3718.4L7383,2742.3H5053.6H2722.3v976.2v976.2h3305.6h3307.5L8359.2,3718.4z M2377.7,3594v-851.8h-855.6H664.6l851.8,851.8c468.9,468.9,853.7,851.8,855.6,851.8C2375.8,4445.8,2377.7,4063,2377.7,3594z M9574.6,1144v-3301.8h-976.2h-976.2V171.7V2503l970.4,970.4c535.9,535.9,974.2,972.3,976.2,972.3C9572.7,4445.8,9574.6,2960.5,9574.6,1144z M2377.7,66.4V-2263l-976.2-976.2l-976.2-976.2v3307.5v3305.6h976.2h976.2V66.4z M7277.7,120v-2277.7H5000H2722.3V120v2277.7H5000h2277.7V120z M7277.7-3478.4v-976.2H3972.1H664.6l976.2,976.2l976.2,976.2h2329.4h2331.3V-3478.4z M9325.8-2508c0-1.9-382.8-386.6-851.8-855.6l-851.8-851.8v857.5v855.6H8474C8943-2502.3,9325.8-2504.2,9325.8-2508z" />
        </g>
    </g>
</svg>